<?xml version="1.0" encoding="iso-8859-1"?>
<!-- Generator: Adobe Illustrator 19.0.0, SVG Export Plug-In . SVG Version: 6.00 Build 0)  -->
<svg version="1.1" id="Layer_1" xmlns="http://www.w3.org/2000/svg" xmlns:xlink="http://www.w3.org/1999/xlink" x="0px" y="0px"
	 viewBox="0 0 512 512" style="enable-background:new 0 0 512 512;" xml:space="preserve">
<path style="fill:#E2D8BD;" d="M256,0C114.615,0,0,114.615,0,256s114.615,256,256,256s256-114.615,256-256S397.385,0,256,0z"/>
<path style="fill:#C41216;" d="M256,94.523c-89.038,0-161.477,72.438-161.477,161.477S166.962,417.477,256,417.477
	S417.477,345.039,417.477,256S345.039,94.523,256,94.523z"/>
<path style="fill:#F92629;" d="M256,383.719c-70.424,0-127.719-57.294-127.719-127.719S185.576,128.281,256,128.281
	S383.719,185.576,383.719,256S326.424,383.719,256,383.719z"/>
<path style="fill:#440852;" d="M256,188.484c-37.229,0-67.516,30.288-67.516,67.516s30.288,67.517,67.516,67.517
	s67.517-30.288,67.517-67.517S293.229,188.484,256,188.484z"/>
<g>
	<path style="fill:#FFFFFF;" d="M302.548,158.815c-27.921,0-50.637,22.716-50.637,50.637s22.716,50.637,50.637,50.637
		c27.921,0,50.637-22.716,50.637-50.637S330.47,158.815,302.548,158.815z"/>
	<path style="fill:#FFFFFF;" d="M63.742,153.054c-1.44,0-2.901-0.369-4.236-1.146c-4.028-2.344-5.396-7.51-3.052-11.539
		c19.97-34.334,48.615-63.136,82.84-83.293C174.572,36.301,214.929,25.319,256,25.319c4.661,0,8.44,3.778,8.44,8.44
		s-3.779,8.44-8.44,8.44c-75.82,0-146.691,40.869-184.955,106.658C69.478,151.551,66.649,153.054,63.742,153.054z"/>
	<path style="fill:#FFFFFF;" d="M33.758,264.44c-4.661,0-8.44-3.778-8.44-8.44c0-28.986,5.339-57.276,15.869-84.086
		c1.705-4.338,6.602-6.477,10.941-4.769c4.338,1.704,6.474,6.602,4.77,10.941C47.143,202.92,42.198,229.134,42.198,256
		C42.198,260.662,38.419,264.44,33.758,264.44z"/>
	<path style="fill:#FFFFFF;" d="M345.069,468.058c-3.255,0-6.357-1.895-7.741-5.069c-1.862-4.273,0.091-9.246,4.363-11.109
		c24.459-10.664,46.492-25.702,65.49-44.7c3.296-3.295,8.64-3.295,11.935,0c3.296,3.297,3.296,8.64,0,11.936
		c-20.497,20.497-44.276,36.726-70.678,48.236C347.34,467.832,346.195,468.058,345.069,468.058z"/>
</g>
<g>
</g>
<g>
</g>
<g>
</g>
<g>
</g>
<g>
</g>
<g>
</g>
<g>
</g>
<g>
</g>
<g>
</g>
<g>
</g>
<g>
</g>
<g>
</g>
<g>
</g>
<g>
</g>
<g>
</g>
</svg>
