<svg width="691" height="306" viewBox="0 0 691 306" fill="none" xmlns="http://www.w3.org/2000/svg">
<path d="M148.543 302.715C148.824 302.715 149.096 302.613 149.308 302.429C149.521 302.244 149.659 301.99 149.699 301.711C149.748 301.362 154.613 266.282 150.244 219.659C146.21 176.601 133.254 114.583 94.4432 63.6481C94.3502 63.5258 94.234 63.423 94.1013 63.3456C93.9686 63.2683 93.822 63.2178 93.6697 63.1971C93.5175 63.1765 93.3628 63.186 93.2142 63.2253C93.0657 63.2645 92.9263 63.3326 92.8041 63.4257C92.682 63.5188 92.5793 63.6351 92.5021 63.7679C92.4249 63.9007 92.3747 64.0474 92.3542 64.1997C92.3337 64.3519 92.3434 64.5067 92.3828 64.6552C92.4222 64.8037 92.4905 64.9429 92.5837 65.065C131.059 115.56 143.911 177.123 147.917 219.877C152.26 266.229 147.434 301.035 147.384 301.382C147.361 301.547 147.373 301.716 147.421 301.877C147.468 302.038 147.55 302.186 147.66 302.313C147.769 302.439 147.905 302.54 148.058 302.61C148.21 302.679 148.376 302.715 148.543 302.715V302.715Z" fill="#FAFAFA" stroke="#FAFAFA" stroke-width="2"/>
<path d="M116.871 135.493C117.118 135.494 117.358 135.416 117.558 135.271C117.758 135.126 117.907 134.921 117.983 134.686C118.059 134.451 118.059 134.198 117.983 133.964C117.907 133.729 117.758 133.524 117.559 133.379C106.5 125.893 94.5534 119.812 81.9939 115.275C62.3721 108.091 32.5343 101.578 1.81686 111.355C1.67028 111.401 1.53428 111.476 1.41662 111.575C1.29897 111.674 1.20199 111.795 1.13122 111.931C1.06046 112.068 1.01731 112.217 1.00424 112.37C0.991163 112.523 1.00841 112.677 1.05502 112.824C1.10163 112.97 1.17669 113.106 1.27588 113.223C1.37506 113.341 1.49644 113.438 1.63305 113.508C1.76966 113.578 1.91881 113.621 2.07199 113.634C2.22517 113.647 2.37936 113.629 2.52572 113.582C32.6139 104.007 61.9108 110.411 81.1901 117.47C93.5477 121.93 105.303 127.909 116.184 135.27C116.384 135.415 116.624 135.493 116.871 135.493V135.493Z" fill="#FAFAFA" stroke="#FAFAFA" stroke-width="2"/>
<path d="M170.368 2.25396C170.386 2.00771 170.325 1.7621 170.195 1.55233C170.065 1.34257 169.871 1.17945 169.643 1.08633C169.414 0.993209 169.162 0.974876 168.922 1.03399C168.682 1.0931 168.468 1.22661 168.308 1.41537C160.046 11.9063 153.12 23.384 147.69 35.5841C139.112 54.6376 130.467 83.9289 138.006 115.271C138.042 115.42 138.107 115.561 138.197 115.685C138.287 115.81 138.401 115.915 138.532 115.995C138.663 116.075 138.808 116.129 138.96 116.153C139.112 116.177 139.267 116.171 139.416 116.135C139.565 116.099 139.706 116.034 139.831 115.944C139.955 115.853 140.06 115.74 140.14 115.608C140.22 115.477 140.274 115.332 140.297 115.18C140.321 115.028 140.315 114.873 140.279 114.724C132.895 84.0244 141.393 55.2648 149.822 36.5439C155.16 24.5395 161.97 13.2457 170.096 2.92233C170.255 2.73399 170.35 2.49994 170.368 2.25396V2.25396Z" fill="#FAFAFA" stroke="#FAFAFA" stroke-width="2"/>
<path d="M542.198 302.715C541.917 302.715 541.645 302.613 541.433 302.429C541.221 302.244 541.082 301.99 541.042 301.711C540.993 301.362 536.129 266.282 540.497 219.659C544.532 176.601 557.487 114.583 596.298 63.6481C596.391 63.5258 596.507 63.423 596.64 63.3456C596.773 63.2683 596.919 63.2178 597.071 63.1971C597.224 63.1765 597.378 63.186 597.527 63.2253C597.676 63.2645 597.815 63.3326 597.937 63.4257C598.059 63.5188 598.162 63.6351 598.239 63.7679C598.316 63.9007 598.367 64.0474 598.387 64.1997C598.407 64.3519 598.398 64.5067 598.358 64.6552C598.319 64.8037 598.251 64.9429 598.157 65.065C559.682 115.56 546.831 177.123 542.825 219.877C538.482 266.229 543.308 301.035 543.357 301.382C543.38 301.547 543.368 301.716 543.32 301.877C543.273 302.038 543.191 302.186 543.082 302.313C542.972 302.439 542.836 302.54 542.684 302.61C542.531 302.679 542.366 302.715 542.198 302.715V302.715Z" fill="#FAFAFA" stroke="#FAFAFA" stroke-width="2"/>
<path d="M573.871 135.493C573.624 135.494 573.383 135.416 573.183 135.271C572.983 135.126 572.835 134.921 572.758 134.686C572.682 134.451 572.682 134.198 572.758 133.964C572.834 133.729 572.983 133.524 573.182 133.379C584.241 125.893 596.188 119.812 608.747 115.275C628.369 108.091 658.207 101.578 688.924 111.355C689.071 111.401 689.207 111.476 689.325 111.575C689.442 111.674 689.539 111.795 689.61 111.931C689.681 112.068 689.724 112.217 689.737 112.37C689.75 112.523 689.733 112.677 689.686 112.824C689.64 112.97 689.565 113.106 689.465 113.223C689.366 113.341 689.245 113.438 689.108 113.508C688.972 113.578 688.822 113.621 688.669 113.634C688.516 113.647 688.362 113.629 688.215 113.582C658.127 104.007 628.83 110.411 609.551 117.47C597.194 121.93 585.439 127.909 574.557 135.27C574.358 135.415 574.117 135.493 573.871 135.493V135.493Z" fill="#FAFAFA" stroke="#FAFAFA" stroke-width="2"/>
<path d="M520.374 2.25396C520.356 2.00771 520.416 1.7621 520.546 1.55233C520.676 1.34257 520.87 1.17945 521.098 1.08633C521.327 0.993209 521.579 0.974876 521.819 1.03399C522.059 1.0931 522.274 1.22661 522.433 1.41537C530.695 11.9063 537.621 23.384 543.052 35.5841C551.63 54.6376 560.274 83.9289 552.735 115.271C552.699 115.42 552.635 115.561 552.544 115.685C552.454 115.81 552.34 115.915 552.209 115.995C552.078 116.075 551.933 116.129 551.781 116.153C551.629 116.177 551.474 116.171 551.325 116.135C551.176 116.099 551.035 116.034 550.911 115.944C550.786 115.853 550.681 115.74 550.601 115.608C550.521 115.477 550.468 115.332 550.444 115.18C550.42 115.028 550.426 114.873 550.462 114.724C557.846 84.0244 549.348 55.2648 540.92 36.5439C535.582 24.5395 528.771 13.2457 520.646 2.92233C520.486 2.73399 520.391 2.49994 520.374 2.25396V2.25396Z" fill="#FAFAFA" stroke="#FAFAFA" stroke-width="2"/>
<path d="M295.371 184.25L332.871 221.75L395.371 146.75" stroke="white" stroke-width="5" stroke-linecap="round" stroke-linejoin="round"/>
<path d="M345.371 303C414.406 303 470.371 247.036 470.371 178C470.371 108.964 414.406 53 345.371 53C276.335 53 220.371 108.964 220.371 178C220.371 247.036 276.335 303 345.371 303Z" stroke="white" stroke-width="5"/>
</svg>
