<svg width="25" height="50" viewBox="0 0 25 50" fill="none" xmlns="http://www.w3.org/2000/svg">
<path d="M5.35712 25C5.35712 26.4127 5.77604 27.7937 6.56091 28.9683C7.34577 30.143 8.46133 31.0585 9.76652 31.5991C11.0717 32.1397 12.5079 32.2812 13.8935 32.0056C15.2791 31.73 16.5518 31.0497 17.5507 30.0507C18.5497 29.0518 19.23 27.7791 19.5056 26.3935C19.7812 25.0079 19.6397 23.5717 19.0991 22.2665C18.5585 20.9613 17.643 19.8458 16.4683 19.0609C15.2937 18.276 13.9127 17.8571 12.5 17.8571C10.6056 17.8571 8.78876 18.6097 7.44921 19.9492C6.10967 21.2888 5.35712 23.1056 5.35712 25ZM16.0714 25C16.0714 25.7063 15.8619 26.3968 15.4695 26.9842C15.0771 27.5715 14.5193 28.0292 13.8667 28.2995C13.2141 28.5699 12.496 28.6406 11.8032 28.5028C11.1104 28.365 10.4741 28.0248 9.97459 27.5254C9.47512 27.0259 9.13497 26.3895 8.99717 25.6967C8.85936 25.0039 8.93009 24.2858 9.2004 23.6332C9.47072 22.9807 9.92848 22.4229 10.5158 22.0304C11.1031 21.638 11.7936 21.4285 12.5 21.4285C13.4472 21.4285 14.3556 21.8048 15.0254 22.4746C15.6951 23.1444 16.0714 24.0528 16.0714 25Z" fill="#E1E1E1"/>
<path d="M12.5 44.9464L2.5 34.9643L0 37.5L12.5 50L25 37.5L22.4821 34.9822L12.5 44.9464Z" fill="#E1E1E1"/>
<path d="M12.5 5.05357L22.4643 15L25 12.5L12.5 0L0 12.5L2.51786 15.0179L12.5 5.05357Z" fill="#E1E1E1"/>
</svg>
